<?xml version="1.0" encoding="UTF-8" standalone="no"?>
<!DOCTYPE svg PUBLIC "-//W3C//DTD SVG 1.1//EN" "http://www.w3.org/Graphics/SVG/1.1/DTD/svg11.dtd">
<svg width="100%" height="100%" viewBox="0 0 360 360" version="1.1" xmlns="http://www.w3.org/2000/svg" xmlns:xlink="http://www.w3.org/1999/xlink" xml:space="preserve" xmlns:serif="http://www.serif.com/" style="fill-rule:evenodd;clip-rule:evenodd;stroke-linejoin:round;stroke-miterlimit:2;">
    <g transform="matrix(1,0,0,1,-60,-60)">
        <g>
            <path d="M125,420L355,420C390.9,420 420,390.9 420,355L420,125C420,89.1 390.9,60 355,60L125,60C89.1,60 60,89.1 60,125L60,355C60,390.9 89.1,420 125,420Z" style="fill:rgb(0,195,0);fill-rule:nonzero;"/>
            <path d="M371.13,224.17C371.13,165.52 312.33,117.8 240.06,117.8C167.79,117.8 108.98,165.52 108.98,224.17C108.98,276.75 155.61,320.79 218.6,329.12C222.87,330.04 228.68,331.94 230.15,335.58C231.47,338.89 231.01,344.08 230.57,347.43C230.57,347.43 229.04,356.68 228.7,358.65C228.13,361.96 226.07,371.61 240.05,365.72C254.04,359.83 315.53,321.27 343.03,289.61L343.02,289.61C362.03,268.79 371.13,247.64 371.13,224.17ZM188.75,259.07L162.71,259.07C158.92,259.07 155.84,255.99 155.84,252.19L155.84,200.1C155.84,196.31 158.92,193.23 162.71,193.23C166.5,193.23 169.58,196.31 169.58,200.1L169.58,245.31L188.75,245.31C192.54,245.31 195.62,248.39 195.62,252.18C195.62,255.98 192.54,259.07 188.75,259.07ZM215.68,252.19C215.68,255.98 212.6,259.07 208.81,259.07C205.02,259.07 201.94,255.99 201.94,252.19L201.94,200.1C201.94,196.31 205.02,193.23 208.81,193.23C212.6,193.23 215.68,196.31 215.68,200.1L215.68,252.19ZM278.38,252.19C278.38,255.16 276.5,257.78 273.68,258.71C272.97,258.95 272.23,259.07 271.5,259.07C269.35,259.07 267.3,258.04 266.01,256.32L239.32,219.97L239.32,252.19C239.32,255.98 236.24,259.07 232.44,259.07C228.65,259.07 225.56,255.99 225.56,252.19L225.56,200.1C225.56,197.14 227.45,194.52 230.26,193.58C230.97,193.34 231.7,193.23 232.44,193.23C234.58,193.23 236.64,194.26 237.93,195.98L264.63,232.33L264.63,200.1C264.63,196.31 267.72,193.23 271.51,193.23C275.3,193.23 278.38,196.31 278.38,200.1L278.38,252.19ZM320.52,219.27C324.31,219.27 327.4,222.35 327.4,226.15C327.4,229.94 324.32,233.02 320.52,233.02L301.35,233.02L301.35,245.32L320.52,245.32C324.31,245.32 327.4,248.4 327.4,252.19C327.4,255.98 324.31,259.07 320.52,259.07L294.48,259.07C290.7,259.07 287.61,255.99 287.61,252.19L287.61,200.11C287.61,196.32 290.69,193.24 294.48,193.24L320.52,193.24C324.31,193.24 327.4,196.32 327.4,200.11C327.4,203.9 324.32,206.98 320.52,206.98L301.35,206.98L301.35,219.28L320.52,219.28L320.52,219.27Z" style="fill:white;fill-rule:nonzero;"/>
        </g>
    </g>
</svg>
